/* XPM */
static char * en18_xpm[] = {
"18 18 2 1",
" 	c None",
".	c #FFFFFF",
"                  ",
"                  ",
"                  ",
"                  ",
" ......           ",
" ..               ",
" ..      .. ..    ",
" ..      ... ..   ",
" .....   ..  ..   ",
" ..      ..  ..   ",
" ..      ..  ..   ",
" ..      ..  ..   ",
" ......  ..  ..   ",
"                  ",
"                  ",
"                  ",
"                  ",
"                  "};
