/* XPM */
static char * ru18_xpm[] = {
"18 18 2 1",
" 	c None",
".	c #FFFFFF",
"                  ",
"                  ",
"                  ",
"                  ",
" .....            ",
" ..  ..           ",
" ..  ..  ..  ..   ",
" .. ...  ..  ..   ",
" .....   ..  ..   ",
" .. ..   ..  ..   ",
" .. ..   ..  ..   ",
" ..  ..  ......   ",
" ..  ..   .. ..   ",
"                  ",
"                  ",
"                  ",
"                  ",
"                  "};
